<svg xmlns="http://www.w3.org/2000/svg" xmlns:xlink="http://www.w3.org/1999/xlink" width="65" height="65"><defs><path id="a" d="M.20529394.68037427H23.0403077V11.1584705H.20529394z"/><path id="c" d="M.6842834.0576459h18.805224v25.6749316H.6842834z"/><path id="e" d="M0 .52041379h18.1723538V18.9149588H0z"/></defs><g fill="none" fill-rule="evenodd"><rect width="64" height="64" x=".5" y=".5" fill="#FAFAFA" fill-rule="nonzero" stroke="#D8D8DA" rx="16"/><g transform="translate(19.128 16.428)"><mask id="b" fill="#fff"><use xlink:href="#a"/></mask><path fill="#EA4335" d="M18.6683449 8.7317284h1.09573l3.1228306-3.15808906.1534022-1.34080272C17.2285556-.95529424 8.35862107-.39570302 3.22841309 5.48166693 1.80286832 7.11500842.7695949 9.05640212.20529394 11.1584705c.34734642-.1440532.73304339-.1673233 1.09573003-.0664861l6.24566115-1.0416153s.31776171-.53188869.48212122-.49864565C10.806482 6.46566099 15.481962 6.10663613 18.6902595 8.7317284h-.0219146z" mask="url(#b)"/></g><g transform="translate(31.436 20.614)"><mask id="d" fill="#fff"><use xlink:href="#c"/></mask><path fill="#4285F4" d="M15.0273895 6.97219877c-.7177032-2.67384873-2.1914601-5.07621261-4.2404752-6.91455287L6.40399415 4.49005159c1.85068801 1.52917996 2.9047803 3.83292282 2.85985537 6.24969201v.786752c2.15530098 0 3.90079888 1.7663137 3.90079888 3.943733 0 2.1796355-1.7454979 3.9459491-3.90079888 3.9459491h-7.8015978l-.77796832.7978331v4.731593l.77796832.7867521h7.8015978c5.60356338.0432159 10.18152338-4.5144052 10.22535258-10.1801278.0262976-3.4351144-1.6479779-6.65636526-4.4618126-8.58002933" mask="url(#d)"/></g><path fill="#34A853" d="M25.0858662 46.3024739h7.8015978v-6.3161781h-7.8015978c-.55553514 0-1.10559161-.1218911-1.61072316-.3557005l-1.09573002.3446195-3.14474518 3.1580891-.27393251 1.1081014c1.76412534 1.3463432 3.91504339 2.0710415 6.12513087 2.0610686"/><g transform="translate(15 25.293)"><mask id="f" fill="#fff"><use xlink:href="#e"/></mask><path fill="#FBBC05" d="M10.0858662.5204138C4.48230282.55482637-.03320062 5.1756093-.00050706 10.84244c.01880575 3.1647376 1.48050961 6.1433143 3.96124239 8.0725188L8.48610034 14.3385c-1.96354821-.8975622-2.83574931-3.23344-1.94820798-5.21915772.88644559-1.98571775 3.19734022-2.86776649 5.16088844-1.97131243.864531.3955922 1.5581281 1.0970204 1.948208 1.97131243l4.525365-4.57645888C16.2471561 1.99757443 13.2547174.50939422 10.0858662.5204138" mask="url(#f)"/></g></g></svg>